# xmcd CD database file
# Copyright (C) 1997 Ti Kan
# 
# Track frame offsets:
#     216
#     16000
#     33248
#     52689
#     67339
#     81905
#     97660
#     110270
#     126138
#     142829
#     154873
#     170999
#     189827
#     207150
# 
# Disc length: 3061 seconds
# 
# Revision: 1
# Processed by: cddbd v1.4b41PL1 Copyright (c) Steve Scherf et al.
# Submitted via: DiscPlay 4.0.3
# 
DISCID=ac0bf30e
DTITLE=Scooter Lee - The Honky Tonk Twist...And Then Some
DYEAR=1900
DGENRE=
TTITLE0=Honky Tonk Twist
TTITLE1=Be Bop A Lula
TTITLE2=Old Friend
TTITLE3=Traces
TTITLE4=I'll Two Step Alone
TTITLE5=He's My Little Jalapeno
TTITLE6=Well Oiled Lovin' Machine
TTITLE7=Deal With It
TTITLE8=Take It From Me
TTITLE9=Where's Hank Williams (When You Need Him)
TTITLE10=I Love The Nightlife
TTITLE11=Honky Tonk Twist (dance mix)
TTITLE12=Old Friend (competition mix)
TTITLE13=I Love The Nightlife (dance mix)
EXTD=
EXTT0=
EXTT1=
EXTT2=
EXTT3=
EXTT4=
EXTT5=
EXTT6=
EXTT7=
EXTT8=
EXTT9=
EXTT10=
EXTT11=
EXTT12=
EXTT13=
PLAYORDER=
